<svg width="79" height="82" viewBox="0 0 79 82" fill="none" xmlns="http://www.w3.org/2000/svg">
<circle cx="56.5" cy="22.5" r="22.5" fill="#48AA04" fill-opacity="0.67"/>
<path d="M0 14V81.2766H51V25.5021L39.4979 14H0ZM40.1489 17.6894L47.3106 24.8511H40.1489V17.6894ZM2.17021 79.1064V16.1702H37.9787V27.0213H48.8298V79.1064H2.17021Z" fill="#414141"/>
<path d="M44.4885 54.6914H6.50977V56.8616H44.4885V54.6914Z" fill="#414141"/>
<path d="M44.4885 60.1172H6.50977V62.2874H44.4885V60.1172Z" fill="#414141"/>
<path d="M44.4896 65.5425H30.9258V67.7127H44.4896V65.5425Z" fill="#414141"/>
<path d="M25.5005 47.4211C30.2207 47.4211 34.9409 46.6073 39.4441 45.0339L40.1494 44.7626V40.802L38.4675 40.3137V38.7403C38.4675 33.8573 35.7548 29.4084 31.4686 27.2382V27.1296C31.4686 25.8818 30.4377 24.8509 29.1899 24.8509H26.5856V24.5254H24.4154V24.8509H21.8111C20.5633 24.8509 19.5324 25.8818 19.5324 27.1296V27.2382C15.2462 29.4626 12.5335 33.9116 12.5335 38.7403V40.3137L10.8516 40.8562V44.8169L11.5569 45.0882C16.0601 46.6073 20.7803 47.4211 25.5005 47.4211ZM13.0218 42.4839L14.7037 41.9956V38.7945C14.7037 35.1594 16.5484 31.7413 19.5324 29.7882V33.0977H21.7026V27.1296C21.7026 27.0754 21.7569 27.0211 21.8111 27.0211H24.4154V36.4073H26.5856V27.0211H29.1899C29.2441 27.0211 29.2984 27.0754 29.2984 27.1296V33.0977H31.4686V29.7882C34.4526 31.7956 36.2973 35.1594 36.2973 38.7945V41.9956L37.9792 42.4839V43.2435C29.8952 45.902 21.1058 45.902 13.0218 43.2435V42.4839Z" fill="#414141"/>
<path d="M33.8009 40.0967H17.1445V42.2669H33.8009V40.0967Z" fill="#414141"/>
</svg>
