<svg width="98" height="79" viewBox="0 0 98 79" fill="none" xmlns="http://www.w3.org/2000/svg">
<circle cx="75.5" cy="22.5" r="22.5" fill="#48AA04" fill-opacity="0.67"/>
<path d="M35.5185 76.6889V64.3481C37.1778 63.9333 38.7852 63.2593 40.1852 62.3259V65.8H55.2222V50.763H47.1333C47.1852 50.3481 47.1852 49.8815 47.1852 49.4667C47.1852 45.0074 45.2148 40.8593 42 38.0074L57.8148 22.1407L63 27.3259V24.3704L57.8148 19.1852L40.3407 36.7111C39.8741 36.4 39.4074 36.1407 38.9407 35.8815L57.8148 16.9556L63 22.1407V19.1852L57.8148 14L39.1481 32.6667C39.3037 31.7852 39.4074 30.9037 39.4074 29.9704C39.4074 22.2444 33.1333 15.9704 25.4074 15.9704C17.6815 15.9704 11.4074 22.2444 11.4074 29.9704C11.4074 30.0222 11.4074 30.0741 11.4074 30.1259C4.56296 32.7704 0 39.4074 0 46.8222C0 56.7259 8.03704 64.763 17.8889 64.763H22.5556V78.763H24.6296V64.763H31.8889C32.4074 64.763 32.9259 64.7111 33.4444 64.6593V78.763H63V76.6889H35.5185ZM53.1481 52.837V63.7259H42.2593V60.7185C44.4889 58.6444 46.0963 55.9481 46.8222 52.837H53.1481ZM31.8889 62.6889H24.6296V57.9704L34.4296 53.0963L33.4963 51.2296L24.6296 55.637V35.2074H22.5556V45.2667L13.6889 40.8074L12.7556 42.6741L22.5556 47.6V62.6889H17.8889C9.17778 62.6889 2.07407 55.5852 2.07407 46.8741C2.07407 40.0815 6.37778 34.0667 12.8074 31.8889L13.5852 31.6296L13.5333 30.8519C13.5333 30.5926 13.4815 30.2815 13.4815 30.0222C13.4815 23.437 18.8222 18.0963 25.4074 18.0963C31.9926 18.0963 37.3333 23.437 37.3333 30.0222C37.3333 31.9926 36.8667 33.9111 35.9333 35.6222L35.363 36.6593L36.4519 37.0741C41.5852 38.9926 45.0593 43.9704 45.0593 49.4667C45.1111 56.7778 39.2 62.6889 31.8889 62.6889Z" fill="#414141"/>
</svg>
