<svg width="90" height="74" viewBox="0 0 90 74" fill="none" xmlns="http://www.w3.org/2000/svg">
<circle cx="67.5" cy="22.5" r="22.5" fill="#48AA04" fill-opacity="0.67"/>
<path d="M67.0241 56.8508C66.3728 55.277 65.1789 54.4629 63.4965 54.4629C62.8995 54.4629 62.194 54.5715 61.4342 54.7885L49.8746 58.8046C49.8746 58.7503 49.8746 58.7503 49.8746 58.696C49.8746 58.6418 49.8746 58.5875 49.8746 58.5332C49.8746 58.4247 49.8746 58.3704 49.8746 58.2619C49.8746 58.2076 49.8746 58.1533 49.8746 58.1533V58.099V58.0448C49.8746 57.9362 49.8203 57.7734 49.8203 57.6649C49.8203 57.6649 49.8203 57.6649 49.8203 57.6106C49.3319 55.4941 47.3782 53.9202 45.0988 53.9202H35.9271C31.694 48.5474 21.871 48.4932 21.4368 48.4932H14.3817V45.8882H0V69.8215H14.3817V67.5421L32.1824 73.1862C32.291 73.2405 34.9502 74.0003 37.9894 74.0003C39.8346 74.0003 41.4627 73.729 42.8737 73.132C46.4556 71.6667 60.8372 63.9603 65.1789 61.6266C66.3728 60.9211 67.9467 59.0759 67.0241 56.8508ZM12.2109 67.5964H2.17082V48.0047H12.2109V48.3846V66.7281V67.5964ZM64.0935 59.6729C59.8061 62.0065 45.4787 69.6044 42.0054 71.0697C40.92 71.5039 39.5632 71.7752 37.9894 71.7752C35.2216 71.7752 32.7794 71.0697 32.7794 71.0697L14.3274 65.2628V50.5554H21.3826C21.4911 50.5554 31.0427 50.6097 34.4075 55.5483L34.7331 56.0368H44.9902C46.347 56.0368 47.4867 57.0136 47.6495 58.3161V58.3704C47.6495 58.4789 47.6495 58.5332 47.6495 58.6418C47.6495 58.7503 47.6495 58.8588 47.5952 58.9674C47.5952 59.0216 47.5952 59.0759 47.5952 59.1302C47.5952 59.2387 47.541 59.3473 47.4867 59.4558C47.4867 59.5101 47.4867 59.5644 47.4324 59.5644C47.3782 59.7272 47.3239 59.8357 47.2153 59.9442C46.7812 60.5955 46.0214 61.0297 45.1531 61.0297H31.0427V63.2005H45.1531C46.6184 63.2005 47.9751 62.495 48.8435 61.4095L62.0312 56.8508C62.5739 56.688 63.0623 56.6337 63.4965 56.6337C64.3105 56.6337 64.6904 56.9051 65.0161 57.6649C65.4502 58.696 64.4191 59.5101 64.0935 59.6729Z" fill="#414141"/>
<path d="M52.695 35.1966C53.1291 35.3594 53.6176 35.4679 54.106 35.4679C55.8427 35.4679 57.4165 34.3825 58.0135 32.7544C58.7733 30.5836 57.6879 28.25 55.517 27.4359C55.0829 27.2731 54.5944 27.1646 54.106 27.1646C52.3693 27.1646 50.7955 28.25 50.1985 29.8781C49.8186 30.9092 49.8729 32.0489 50.3613 33.0258C50.7955 34.0569 51.6096 34.8167 52.695 35.1966ZM52.2608 30.6379C52.5322 29.8781 53.2919 29.3354 54.106 29.3354C54.3231 29.3354 54.5402 29.3896 54.7572 29.4439C55.7884 29.8238 56.3311 30.9635 55.9512 31.9404C55.6798 32.7001 54.9201 33.2428 54.106 33.2428C53.8889 33.2428 53.6718 33.1886 53.4548 33.1343C52.9663 32.9715 52.5864 32.5916 52.3693 32.1032C52.1523 31.6147 52.0437 31.1263 52.2608 30.6379Z" fill="#414141"/>
<path d="M20.3441 24.7224L22.3521 23.7998L23.2747 25.8078L27.942 27.4902L29.95 26.5676L30.8726 28.5756L35.1599 30.1495C35.4856 35.2509 38.7961 39.9182 43.8975 41.7634C45.3628 42.3061 46.8824 42.5774 48.4562 42.5774C54.0461 42.5774 59.039 39.0498 60.9384 33.8399C63.4349 26.9475 59.9073 19.2954 53.0149 16.7989C51.5496 16.2562 50.0301 15.9849 48.4562 15.9849C44.7658 15.9849 41.3468 17.5587 38.8503 20.1094L19.313 13L13.0176 15.1165L15.514 22.9858L20.3441 24.7224ZM48.5105 18.1557C49.813 18.1557 51.0612 18.3728 52.3094 18.8069C58.0621 20.9235 61.047 27.3274 58.9847 33.0801C57.4109 37.476 53.1778 40.4066 48.5105 40.4066C47.208 40.4066 45.9598 40.1895 44.7116 39.7554C38.9589 37.6388 35.974 31.2349 38.0363 25.4822C39.6644 21.1406 43.8975 18.1557 48.5105 18.1557ZM37.4936 21.9004C36.8966 22.7687 36.4082 23.7456 36.0283 24.7767C35.6484 25.8078 35.4313 26.839 35.3228 27.9244L32.555 26.8933L31.0897 23.6913L27.8877 25.1566L24.9028 24.0712L23.4375 20.8692L20.2356 22.3345L17.3592 21.3577L16.1653 17.613L33.2062 23.7998L33.966 21.7376L17.7391 15.8763L19.3672 15.3336L37.4936 21.9004Z" fill="#414141"/>
</svg>
