<svg width="83" height="75" viewBox="0 0 83 75" fill="none" xmlns="http://www.w3.org/2000/svg">
<circle cx="60.5" cy="22.5" r="22.5" fill="#48AA04" fill-opacity="0.67"/>
<path d="M35.4196 23.1006H15.7422V25.0683H35.4196V23.1006Z" fill="#414141"/>
<path d="M40.3384 32.9395H10.8223V34.9072H40.3384V32.9395Z" fill="#414141"/>
<path d="M40.3384 37.8589H10.8223V39.8266H40.3384V37.8589Z" fill="#414141"/>
<path d="M40.3384 42.7783H10.8223V44.7461H40.3384V42.7783Z" fill="#414141"/>
<path d="M40.3384 47.6973H10.8223V49.665H40.3384V47.6973Z" fill="#414141"/>
<path d="M40.3384 52.6172H10.8223V54.5849H40.3384V52.6172Z" fill="#414141"/>
<path d="M40.3393 57.5361H35.4199V59.5039H40.3393V57.5361Z" fill="#414141"/>
<path d="M8.3629 75H50.1774C54.8016 75 58.5403 71.2613 58.5403 66.6371V65.6532H51.1613V14H0V66.6371C0 71.2613 3.73871 75 8.3629 75V73.0323C4.82097 73.0323 1.96774 70.179 1.96774 66.6371V15.9677H49.1936V65.6532H14.7581V66.6371C14.7581 70.179 11.9048 73.0323 8.3629 73.0323V75ZM16.6766 67.621H56.5234C56.0315 70.671 53.375 73.0323 50.2266 73.0323H13.725C15.3484 71.704 16.4306 69.7855 16.6766 67.621Z" fill="#414141"/>
</svg>
