<svg width="44" height="29" viewBox="0 0 44 29" fill="none" xmlns="http://www.w3.org/2000/svg">
<path d="M41.2042 12.0833H2.29583C1.02788 12.0833 0 13.1112 0 14.3792V14.6208C0 15.8888 1.02788 16.9167 2.29583 16.9167H41.2042C42.4721 16.9167 43.5 15.8888 43.5 14.6208V14.3792C43.5 13.1112 42.4721 12.0833 41.2042 12.0833Z" fill="white"/>
<path d="M41.2042 24.1667H2.29583C1.02788 24.1667 0 25.1945 0 26.4625V26.7042C0 27.9721 1.02788 29 2.29583 29H41.2042C42.4721 29 43.5 27.9721 43.5 26.7042V26.4625C43.5 25.1945 42.4721 24.1667 41.2042 24.1667Z" fill="white"/>
<path d="M41.2042 0H2.29583C1.02788 0 0 1.02788 0 2.29583V2.5375C0 3.80545 1.02788 4.83333 2.29583 4.83333H41.2042C42.4721 4.83333 43.5 3.80545 43.5 2.5375V2.29583C43.5 1.02788 42.4721 0 41.2042 0Z" fill="white"/>
</svg>
