<svg width="28" height="30" viewBox="0 0 28 30" fill="none" xmlns="http://www.w3.org/2000/svg">
<path d="M24.8119 2.18637C24.8614 2.13669 24.8982 2.07587 24.9192 2.00901C24.9403 1.94214 24.9449 1.8712 24.9328 1.80216C24.9207 1.73312 24.8922 1.66799 24.8497 1.61226C24.8072 1.55653 24.7519 1.51183 24.6885 1.48193C23.7107 1.02015 22.6139 0.872421 21.5487 1.05903C20.4836 1.24565 19.5023 1.75745 18.7397 2.52415C17.2539 4.01966 16.7349 6.36837 17.428 8.33205L7.33045 18.4296C6.76948 18.2318 6.17859 18.1324 5.58379 18.1356C4.08391 18.1356 2.62952 18.7324 1.5943 19.7737C0.834399 20.5304 0.320784 21.4989 0.120756 22.5524C-0.0792716 23.606 0.0436198 24.6954 0.473327 25.6779C0.501494 25.7437 0.545421 25.8015 0.601231 25.8463C0.657042 25.891 0.723017 25.9214 0.793333 25.9346C0.863649 25.9478 0.936141 25.9436 1.00441 25.9221C1.07268 25.9007 1.13462 25.8628 1.18477 25.8118L4.23967 22.7411C4.44094 22.5381 4.76559 22.511 4.93361 22.6816L6.25235 24.0616C6.444 24.255 6.43525 24.5534 6.2331 24.7573L3.18957 27.8201C3.14011 27.8697 3.1033 27.9304 3.08225 27.9972C3.0612 28.064 3.05653 28.1349 3.06863 28.2039C3.08072 28.2729 3.10924 28.3379 3.15176 28.3936C3.19429 28.4492 3.24958 28.4938 3.31296 28.5236C4.02112 28.8615 4.79567 29.0373 5.58029 29.0382C6.95592 29.0382 8.26241 28.4851 9.26175 27.4805C10.7476 25.9859 11.2666 23.6372 10.5726 21.6735L20.6702 11.5751C21.2315 11.7728 21.8226 11.8722 22.4177 11.8691C23.9176 11.8691 25.372 11.2723 26.4072 10.231C27.1671 9.47433 27.6807 8.50579 27.8807 7.45225C28.0808 6.39871 27.9579 5.30931 27.5282 4.32681C27.5 4.26104 27.4561 4.20321 27.4003 4.15844C27.3445 4.11367 27.2785 4.08332 27.2082 4.07009C27.1378 4.05686 27.0654 4.06114 26.9971 4.08257C26.9288 4.10399 26.8669 4.14189 26.8167 4.19292L23.7618 7.26358C23.6674 7.35482 23.5408 7.40509 23.4096 7.40345C23.2783 7.40181 23.153 7.3484 23.0609 7.25483L21.7491 5.94308C21.7023 5.89816 21.6651 5.84425 21.6396 5.78459C21.6141 5.72492 21.601 5.66074 21.6009 5.59586C21.6008 5.53099 21.6138 5.46677 21.6391 5.40704C21.6645 5.34732 21.7016 5.29331 21.7483 5.24827L24.8119 2.18637ZM21.1296 6.56177L22.4413 7.87351C22.9655 8.40031 23.8633 8.40293 24.3823 7.88139L26.9462 5.30515C27.1493 6.06208 27.1492 6.8592 26.9457 7.61604C26.7423 8.37289 26.3428 9.06268 25.7876 9.61579C24.9152 10.4935 23.6883 10.9958 22.4186 10.9958C21.8209 10.9958 21.2547 10.8838 20.7358 10.6633C20.6556 10.6291 20.567 10.6197 20.4814 10.6362C20.3958 10.6527 20.3171 10.6945 20.2554 10.756L9.75442 21.257C9.69296 21.3184 9.65123 21.3968 9.63455 21.482C9.61787 21.5673 9.627 21.6556 9.66079 21.7356C10.3635 23.407 9.93556 25.5641 8.64307 26.8645C8.08616 27.4294 7.38499 27.8307 6.61585 28.0248C5.84671 28.2189 5.03906 28.1983 4.2808 27.9653L6.85441 25.3751C7.39783 24.8282 7.40658 23.9802 6.87979 23.4517L5.56192 22.0717C5.05349 21.5598 4.14954 21.5913 3.62099 22.1259L1.05701 24.7022C0.853909 23.9452 0.854081 23.1481 1.0575 22.3913C1.26093 21.6344 1.6604 20.9446 2.21561 20.3915C3.08807 19.5138 4.31493 19.0115 5.58467 19.0115C6.18235 19.0115 6.74852 19.1235 7.26745 19.3441C7.34761 19.3785 7.43625 19.388 7.5219 19.3715C7.60755 19.3549 7.68627 19.3131 7.74786 19.2513L18.2488 8.75034C18.3103 8.68892 18.352 8.61057 18.3687 8.5253C18.3854 8.44003 18.3762 8.35172 18.3425 8.27167C17.6398 6.60027 18.0677 4.44232 19.3602 3.14195C19.9169 2.57761 20.6176 2.17662 21.3862 1.98254C22.1548 1.78846 22.9619 1.80872 23.7198 2.0411L21.1296 4.63221C21.0015 4.75813 20.8998 4.90828 20.8303 5.07393C20.7609 5.23957 20.7251 5.41738 20.7251 5.59699C20.7251 5.7766 20.7609 5.95441 20.8303 6.12005C20.8998 6.2857 21.0015 6.43585 21.1296 6.56177Z" fill="white"/>
<path d="M25.5605 27.82C25.4632 27.9136 25.3334 27.9658 25.1983 27.9654C25.0633 27.9651 24.9337 27.9123 24.8369 27.8183L16.0598 19.0675C15.9762 18.9927 15.867 18.9528 15.7549 18.956C15.6427 18.9593 15.5361 19.0054 15.4569 19.0849C15.3777 19.1644 15.3321 19.2713 15.3293 19.3834C15.3265 19.4956 15.3669 19.6046 15.442 19.6879L24.2182 28.4369C24.4807 28.7003 24.829 28.8456 25.2 28.8456C25.571 28.8456 25.9193 28.7003 26.1871 28.4308L27.4376 27.1243C27.5654 26.9982 27.6669 26.8478 27.7362 26.6821C27.8054 26.5164 27.841 26.3385 27.8409 26.1589C27.8409 25.9793 27.8051 25.8015 27.7357 25.6358C27.6663 25.4702 27.5647 25.32 27.4367 25.1939L18.6859 16.4431C18.6034 16.3634 18.4929 16.3193 18.3782 16.3203C18.2634 16.3213 18.1537 16.3673 18.0726 16.4484C17.9914 16.5296 17.9454 16.6393 17.9444 16.754C17.9434 16.8687 17.9875 16.9793 18.0672 17.0618L26.8172 25.8117C27.0176 26.013 27.0176 26.3053 26.811 26.5135L25.5605 27.82V27.82ZM5.12219 3.75445L2.49695 1.12921C2.4149 1.04719 2.30363 1.00111 2.18761 1.00111C2.07159 1.00111 1.96032 1.04719 1.87827 1.12921L0.128106 2.87937C0.0460797 2.96142 0 3.07269 0 3.18871C0 3.30473 0.0460797 3.416 0.128106 3.49805L2.75334 6.12329C2.83551 6.20501 2.94663 6.25095 3.06251 6.25112C3.17838 6.25128 3.28963 6.20565 3.37203 6.12417L3.93733 5.55799L10.6282 12.2488C10.6685 12.2907 10.7167 12.3241 10.7701 12.3471C10.8234 12.3701 10.8808 12.3822 10.9389 12.3828C10.997 12.3834 11.0546 12.3724 11.1084 12.3505C11.1622 12.3286 11.2111 12.2962 11.2523 12.2551C11.2934 12.2141 11.326 12.1653 11.348 12.1116C11.3701 12.0578 11.3813 12.0002 11.3808 11.9421C11.3804 11.884 11.3684 11.8266 11.3456 11.7732C11.3227 11.7198 11.2895 11.6715 11.2477 11.631L4.55601 4.93931L5.12131 4.37401C5.16211 4.33342 5.19451 4.28518 5.21664 4.23206C5.23878 4.17893 5.25021 4.12196 5.25029 4.06441C5.25037 4.00686 5.2391 3.94986 5.21712 3.89667C5.19513 3.84348 5.16288 3.79515 5.12219 3.75445V3.75445ZM3.06225 5.19571L1.05569 3.18915L2.18717 2.05767L4.19373 4.06423L3.06225 5.19571Z" fill="white"/>
</svg>
