<svg width="38" height="38" viewBox="0 0 38 38" fill="none" xmlns="http://www.w3.org/2000/svg">
<path d="M17.4314 17.454C17.5755 17.4541 17.7148 17.4017 17.8231 17.3067L31.2582 5.52433L30.4747 4.63133L17.0396 16.4125C16.9484 16.492 16.8836 16.5976 16.854 16.715C16.8244 16.8324 16.8313 16.956 16.874 17.0693C16.9166 17.1826 16.9928 17.2802 17.0925 17.3489C17.1921 17.4177 17.3103 17.4543 17.4314 17.454Z" fill="#3A7D04"/>
<path d="M12.0948 38C19.3863 38 23.7432 32.2644 23.7432 26.7188C23.7432 25.1204 23.3609 23.3593 22.7958 22.2157L28.1641 19.5308C28.2626 19.4815 28.3454 19.4057 28.4033 19.3119C28.4611 19.2182 28.4918 19.1102 28.4918 19V14.25H32.0533L32.1874 14.2429C32.9781 14.1894 33.2143 13.9377 33.2404 13.0625V8.3125H36.8019C36.955 8.3125 37.0607 8.32912 37.1319 8.33981C37.2756 8.36237 37.5439 8.40394 37.7765 8.19494C38.0163 7.98119 38.0057 7.71044 37.9962 7.47175C37.9938 7.38625 37.989 7.27344 37.989 7.125V1.74444C37.9887 1.28188 37.8049 0.838359 37.4779 0.511281C37.1509 0.184204 36.7075 0.000314558 36.2451 0L31.6449 0C31.2219 0.000882195 30.8135 0.154359 30.4945 0.43225L14.8395 14.1597C14.069 14.0054 12.9044 13.8047 12.0936 13.8047C5.42531 13.8047 0 19.2316 0 25.9018C0 32.5719 5.42531 38 12.0948 38ZM12.0948 14.9922C12.6895 14.9922 13.7081 15.1347 14.8893 15.3817C14.9793 15.4011 15.0727 15.399 15.1617 15.3757C15.2508 15.3524 15.3332 15.3085 15.4022 15.2475L31.2757 1.32763C31.3778 1.23784 31.5089 1.18806 31.6449 1.1875H36.2451C36.5526 1.1875 36.8019 1.43687 36.8019 1.74444V7.125H32.6468C32.4894 7.125 32.3384 7.18756 32.2271 7.29891C32.1158 7.41025 32.0533 7.56128 32.0533 7.71875V13.0625H27.8982C27.7408 13.0625 27.5898 13.1251 27.4785 13.2364C27.3672 13.3478 27.3046 13.4988 27.3046 13.6562V18.6331L21.6965 21.4379C21.6195 21.4764 21.5518 21.5311 21.4981 21.5984C21.4443 21.6656 21.4058 21.7437 21.3853 21.8273C21.3647 21.9109 21.3626 21.998 21.379 22.0825C21.3955 22.167 21.4301 22.2469 21.4804 22.3167C22.0028 23.0375 22.556 24.8271 22.556 26.7188C22.556 31.6801 18.6431 36.8125 12.0948 36.8125C6.08062 36.8125 1.18716 31.9176 1.18716 25.9018C1.18716 19.8859 6.08062 14.9922 12.0948 14.9922Z" fill="#3A7D04"/>
<path d="M10.0926 32.0626C12.3838 32.0626 14.2476 30.1982 14.2476 27.9063C14.2476 25.6145 12.3838 23.7501 10.0926 23.7501C7.80134 23.7501 5.9375 25.6145 5.9375 27.9063C5.9375 30.1982 7.80134 32.0626 10.0926 32.0626ZM10.0926 24.9376C11.7285 24.9376 13.0604 26.27 13.0604 27.9063C13.0604 29.5427 11.7285 30.8751 10.0926 30.8751C8.45665 30.8751 7.12466 29.5427 7.12466 27.9063C7.12466 26.27 8.45665 24.9376 10.0926 24.9376Z" fill="#3A7D04"/>
</svg>
