<svg width="30" height="29" viewBox="0 0 30 29" fill="none" xmlns="http://www.w3.org/2000/svg">
<path d="M13.3081 13.3201C13.4181 13.3202 13.5244 13.2803 13.6071 13.2078L23.8632 4.21595L23.265 3.53445L13.009 12.5254C12.9393 12.5861 12.8899 12.6666 12.8673 12.7562C12.8447 12.8458 12.85 12.9401 12.8825 13.0266C12.9151 13.1131 12.9733 13.1875 13.0493 13.24C13.1254 13.2925 13.2157 13.3204 13.3081 13.3201Z" fill="white"/>
<path d="M9.23287 29C14.7991 29 18.125 24.6228 18.125 20.3906C18.125 19.1708 17.8332 17.8268 17.4018 16.9541L21.4999 14.9051C21.575 14.8674 21.6383 14.8096 21.6824 14.738C21.7266 14.6665 21.75 14.5841 21.75 14.5V10.875H24.4687L24.5712 10.8696C25.1747 10.8288 25.3551 10.6367 25.375 9.96875V6.34375H28.0937C28.2107 6.34375 28.2913 6.35644 28.3457 6.36459C28.4553 6.38181 28.6602 6.41353 28.8378 6.25403C29.0208 6.09091 29.0127 5.88428 29.0054 5.70212C29.0036 5.63687 29 5.55078 29 5.4375V1.33128C28.9998 0.978277 28.8594 0.6398 28.6098 0.390188C28.3602 0.140577 28.0217 0.000240057 27.6687 0L24.157 0C23.8341 0.000673254 23.5223 0.1178 23.2788 0.329875L11.3281 10.8061C10.74 10.6883 9.85094 10.5352 9.23197 10.5352C4.14156 10.5352 0 14.6767 0 19.7671C0 24.8575 4.14156 29 9.23287 29ZM9.23287 11.4414C9.6869 11.4414 10.4645 11.5502 11.3662 11.7387C11.4349 11.7535 11.5061 11.7519 11.5741 11.7341C11.6421 11.7163 11.705 11.6828 11.7577 11.6363L23.8752 1.01319C23.9531 0.944665 24.0532 0.906679 24.157 0.90625H27.6687C27.9034 0.90625 28.0937 1.09656 28.0937 1.33128V5.4375H24.9219C24.8017 5.4375 24.6864 5.48524 24.6015 5.57022C24.5165 5.65519 24.4687 5.77045 24.4687 5.89062V9.96875H21.2969C21.1767 9.96875 21.0614 10.0165 20.9765 10.1015C20.8915 10.1864 20.8437 10.3017 20.8437 10.4219V14.22L16.5626 16.3605C16.5038 16.3899 16.4522 16.4317 16.4111 16.483C16.3701 16.5343 16.3407 16.5939 16.3251 16.6577C16.3094 16.7215 16.3077 16.7879 16.3203 16.8524C16.3328 16.9169 16.3592 16.9779 16.3977 17.0312C16.7964 17.5812 17.2187 18.947 17.2187 20.3906C17.2187 24.1769 14.2317 28.0938 9.23287 28.0938C4.64181 28.0938 0.90625 24.3582 0.90625 19.7671C0.90625 15.1761 4.64181 11.4414 9.23287 11.4414Z" fill="white"/>
<path d="M7.70312 24.4689C9.45219 24.4689 10.875 23.0461 10.875 21.297C10.875 19.5479 9.45219 18.1251 7.70312 18.1251C5.95406 18.1251 4.53125 19.5479 4.53125 21.297C4.53125 23.0461 5.95406 24.4689 7.70312 24.4689ZM7.70312 19.0314C8.95194 19.0314 9.96875 20.0482 9.96875 21.297C9.96875 22.5458 8.95194 23.5626 7.70312 23.5626C6.45431 23.5626 5.4375 22.5458 5.4375 21.297C5.4375 20.0482 6.45431 19.0314 7.70312 19.0314Z" fill="white"/>
</svg>
