<svg width="15" height="28" viewBox="0 0 15 28" fill="none" xmlns="http://www.w3.org/2000/svg">
<path d="M12.4242 1.25147L0.764702 13.2125C0.559921 13.4226 0.445312 13.7043 0.445312 13.9977C0.445312 14.2911 0.559921 14.5729 0.764702 14.783L12.4242 26.7485C12.5196 26.8464 12.6336 26.9243 12.7596 26.9775C12.8856 27.0307 13.021 27.058 13.1577 27.058C13.2944 27.058 13.4298 27.0307 13.5558 26.9775C13.6818 26.9243 13.7958 26.8464 13.8912 26.7485C14.0875 26.5475 14.1973 26.2778 14.1973 25.997C14.1973 25.7161 14.0875 25.4464 13.8912 25.2455L2.92695 13.9977L13.8912 2.75222C14.0868 2.5514 14.1962 2.28216 14.1962 2.00185C14.1962 1.72153 14.0868 1.45229 13.8912 1.25147C13.7958 1.1535 13.6818 1.07563 13.5558 1.02246C13.4298 0.969288 13.2944 0.941895 13.1577 0.941895C13.021 0.941895 12.8856 0.969288 12.7596 1.02246C12.6336 1.07563 12.5196 1.1535 12.4242 1.25147Z" fill="#3A3A3A"/>
</svg>
