<svg width="17" height="21" viewBox="0 0 17 21" fill="none" xmlns="http://www.w3.org/2000/svg">
<path d="M3 19.5H13.5C14 19.5 14.25 19.75 14.25 20.25C14.25 20.75 14 21 13.5 21H3C2.5 21 2.25 20.75 2.25 20.25C2.25 19.75 2.5 19.5 3 19.5Z" fill="url(#paint0_linear_426_258)"/>
<path d="M15 8.25C15 6.45979 14.2888 4.7429 13.023 3.47703C11.7571 2.21116 10.0402 1.5 8.25 1.5C6.45979 1.5 4.7429 2.21116 3.47703 3.47703C2.21116 4.7429 1.5 6.45979 1.5 8.25C1.5 11.019 3.7155 14.628 8.25 18.951C12.7845 14.628 15 11.019 15 8.25ZM8.25 21C2.7495 16.0005 0 11.7495 0 8.25C0 6.06196 0.869194 3.96354 2.41637 2.41637C3.96354 0.869194 6.06196 0 8.25 0C10.438 0 12.5365 0.869194 14.0836 2.41637C15.6308 3.96354 16.5 6.06196 16.5 8.25C16.5 11.7495 13.7505 16.0005 8.25 21Z" fill="url(#paint1_linear_426_258)"/>
<path d="M8.25 10.5C8.84674 10.5 9.41903 10.2629 9.84099 9.84099C10.2629 9.41903 10.5 8.84674 10.5 8.25C10.5 7.65326 10.2629 7.08097 9.84099 6.65901C9.41903 6.23705 8.84674 6 8.25 6C7.65326 6 7.08097 6.23705 6.65901 6.65901C6.23705 7.08097 6 7.65326 6 8.25C6 8.84674 6.23705 9.41903 6.65901 9.84099C7.08097 10.2629 7.65326 10.5 8.25 10.5ZM8.25 12C7.25544 12 6.30161 11.6049 5.59835 10.9017C4.89509 10.1984 4.5 9.24456 4.5 8.25C4.5 7.25544 4.89509 6.30161 5.59835 5.59835C6.30161 4.89509 7.25544 4.5 8.25 4.5C9.24456 4.5 10.1984 4.89509 10.9017 5.59835C11.6049 6.30161 12 7.25544 12 8.25C12 9.24456 11.6049 10.1984 10.9017 10.9017C10.1984 11.6049 9.24456 12 8.25 12Z" fill="url(#paint2_linear_426_258)"/>
<defs>
<linearGradient id="paint0_linear_426_258" x1="8.43293" y1="19.0325" x2="8.38097" y2="21.0035" gradientUnits="userSpaceOnUse">
<stop stop-color="#7AC915"/>
<stop offset="1" stop-color="#51791D"/>
</linearGradient>
<linearGradient id="paint1_linear_426_258" x1="8.50152" y1="-6.54545" x2="1.58844" y2="19.2121" gradientUnits="userSpaceOnUse">
<stop stop-color="#7AC915"/>
<stop offset="1" stop-color="#51791D"/>
</linearGradient>
<linearGradient id="paint2_linear_426_258" x1="8.36433" y1="2.16234" x2="6.37324" y2="11.6042" gradientUnits="userSpaceOnUse">
<stop stop-color="#7AC915"/>
<stop offset="1" stop-color="#51791D"/>
</linearGradient>
</defs>
</svg>
