<svg width="45" height="46" viewBox="0 0 45 46" fill="none" xmlns="http://www.w3.org/2000/svg">
<path d="M43.5968 23.9409C43.4113 23.942 43.2275 23.9065 43.0558 23.8364C42.8842 23.7662 42.728 23.6629 42.5963 23.5323L22.461 3.38285L2.32558 23.5323C2.05603 23.7632 1.7093 23.8838 1.35467 23.8701C1.00004 23.8564 0.663648 23.7094 0.412703 23.4584C0.161758 23.2075 0.0147485 22.8711 0.00105085 22.5165C-0.0126468 22.1618 0.107977 21.8151 0.338817 21.5456L21.4746 0.409743C21.7386 0.147305 22.0958 0 22.468 0C22.8403 0 23.1974 0.147305 23.4614 0.409743L44.5972 21.5456C44.7911 21.7434 44.9224 21.9939 44.9747 22.2659C45.027 22.538 44.9979 22.8193 44.8912 23.0749C44.7844 23.3305 44.6047 23.549 44.3745 23.703C44.1443 23.857 43.8738 23.9398 43.5968 23.9409Z" fill="white"/>
<path d="M22.4614 8.14551L5.55273 25.1105V42.2587C5.55273 43.0061 5.84964 43.7229 6.37814 44.2514C6.90664 44.7799 7.62343 45.0768 8.37084 45.0768H18.2342V30.9863H26.6885V45.0768H36.5519C37.2993 45.0768 38.0161 44.7799 38.5446 44.2514C39.0731 43.7229 39.37 43.0061 39.37 42.2587V25.0119L22.4614 8.14551Z" fill="white"/>
</svg>
