<svg width="25" height="27" viewBox="0 0 25 27" fill="none" xmlns="http://www.w3.org/2000/svg">
<path d="M15.126 3.88647H6.72266V4.72681H15.126V3.88647Z" fill="white"/>
<path d="M17.2261 8.08832H4.62109V8.92865H17.2261V8.08832Z" fill="white"/>
<path d="M17.2261 10.189H4.62109V11.0294H17.2261V10.189Z" fill="white"/>
<path d="M17.2261 12.29H4.62109V13.1304H17.2261V12.29Z" fill="white"/>
<path d="M17.2261 14.3906H4.62109V15.231H17.2261V14.3906Z" fill="white"/>
<path d="M17.2261 16.4918H4.62109V17.3321H17.2261V16.4918Z" fill="white"/>
<path d="M17.2278 18.5923H15.127V19.4326H17.2278V18.5923Z" fill="white"/>
<path d="M3.57143 26.0504H21.4286C23.4034 26.0504 25 24.4538 25 22.479V22.0588H21.8487V0H0V22.479C0 24.4538 1.59664 26.0504 3.57143 26.0504V25.2101C2.05882 25.2101 0.840336 23.9916 0.840336 22.479V0.840336H21.0084V22.0588H6.30252V22.479C6.30252 23.9916 5.08403 25.2101 3.57143 25.2101V26.0504ZM7.12185 22.8992H24.1387C23.9286 24.2017 22.7941 25.2101 21.4496 25.2101H5.86134C6.55462 24.6429 7.01681 23.8235 7.12185 22.8992Z" fill="white"/>
</svg>
