<svg width="32" height="32" viewBox="0 0 32 32" fill="none" xmlns="http://www.w3.org/2000/svg">
<path d="M4 31.5H27.5V5.8L22.2 0.5H4V31.5ZM22.5 2.2L25.8 5.5H22.5V2.2ZM5 1.5H21.5V6.5H26.5V30.5H5V1.5Z" fill="white"/>
<path d="M19.75 5.5H12.25V6.5H19.75V5.5Z" fill="white"/>
<path d="M23.5 9.5H8.5V10.5H23.5V9.5Z" fill="white"/>
<path d="M23.5 12H8.5V13H23.5V12Z" fill="white"/>
<path d="M23.5 14.5H8.5V15.5H23.5V14.5Z" fill="white"/>
<path d="M23.5 17H8.5V18H23.5V17Z" fill="white"/>
<path d="M15.9754 25.025L14.3504 23.4L13.6504 24.1L16.0254 26.475L19.6254 22.325L18.8754 21.675L15.9754 25.025Z" fill="white"/>
</svg>
