<svg width="37" height="39" viewBox="0 0 37 39" fill="none" xmlns="http://www.w3.org/2000/svg">
<path d="M22.3881 5.81842H9.95117V7.07648H22.3881V5.81842Z" fill="#3A7D04"/>
<path d="M25.4934 12.109H6.83789V13.3671H25.4934V12.109Z" fill="#3A7D04"/>
<path d="M25.4934 15.254H6.83789V16.512H25.4934V15.254Z" fill="#3A7D04"/>
<path d="M25.4934 18.3994H6.83789V19.6574H25.4934V18.3994Z" fill="#3A7D04"/>
<path d="M25.4934 21.5442H6.83789V22.8023H25.4934V21.5442Z" fill="#3A7D04"/>
<path d="M25.4934 24.6898H6.83789V25.9478H25.4934V24.6898Z" fill="#3A7D04"/>
<path d="M25.4979 27.8345H22.3887V29.0926H25.4979V27.8345Z" fill="#3A7D04"/>
<path d="M5.28571 39H31.7143C34.637 39 37 36.6097 37 33.6532V33.0242H32.3361V0H0V33.6532C0 36.6097 2.36303 39 5.28571 39V37.7419C3.04706 37.7419 1.2437 35.9177 1.2437 33.6532V1.25806H31.0924V33.0242H9.32773V33.6532C9.32773 35.9177 7.52437 37.7419 5.28571 37.7419V39ZM10.5403 34.2823H35.7252C35.4143 36.2323 33.7353 37.7419 31.7454 37.7419H8.67479C9.70084 36.8927 10.3849 35.6661 10.5403 34.2823Z" fill="#3A7D04"/>
</svg>
