<svg width="38" height="38" viewBox="0 0 38 38" fill="none" xmlns="http://www.w3.org/2000/svg">
<path d="M0 37.4055C0 37.5632 0.0623375 37.7144 0.173299 37.8259C0.28426 37.9374 0.434756 38 0.591679 38H37.4071C37.4854 38.0006 37.5629 37.9854 37.6351 37.9551C37.7073 37.9249 37.7726 37.8803 37.8272 37.824L37.8308 37.8216C37.8343 37.8181 37.8343 37.8109 37.8391 37.8074C37.898 37.7406 37.9412 37.6613 37.9657 37.5755C37.974 37.5482 37.9775 37.522 37.9823 37.4935C37.987 37.4638 38 37.4376 38 37.4067C38 37.3592 37.9834 37.3176 37.9728 37.2736C37.9692 37.2569 37.9763 37.2403 37.9704 37.2236L34.231 25.6735C34.2026 25.584 34.1531 25.5029 34.0866 25.4369L13.8311 5.08531C13.8098 5.05202 13.7944 5.01636 13.766 4.98663L9.34143 0.54134C8.99539 0.194672 8.52664 0 8.03796 0C7.54928 0 7.08054 0.194672 6.73449 0.54134L0.539611 6.76523C0.191704 7.11476 0 7.57962 0 8.0742C0 8.56879 0.191704 9.03483 0.539611 9.38437L4.86597 13.731C4.88727 13.7631 4.90147 13.7999 4.92987 13.8285L25.1535 34.2835C25.2229 34.3545 25.3092 34.4065 25.4043 34.4345L33.3482 36.8123H0.591679C0.514035 36.8121 0.437122 36.8273 0.365343 36.8571C0.293564 36.8868 0.228328 36.9305 0.17337 36.9856C0.118412 37.0407 0.0748109 37.1062 0.0450618 37.1782C0.0153126 37.2503 -1.55911e-07 37.3275 0 37.4055H0ZM7.52853 12.0606L26.0919 30.4719L25.4091 32.852L6.18541 13.41L7.52853 12.0606ZM26.9995 29.7027L8.36398 11.2212L11.2478 8.32387L29.7165 26.9278V29.7027H26.9995ZM30.4537 25.9873L12.0845 7.48332L13.314 6.24805L32.4974 25.5213L30.4537 25.9873ZM27.203 30.8916H30.3082C30.4651 30.8916 30.6156 30.8289 30.7266 30.7174C30.8375 30.606 30.8999 30.4548 30.8999 30.2971V27.1049L33.2749 26.5628L36.4971 36.5139L26.4528 33.5071L27.203 30.8916ZM1.18336 8.0742C1.18336 7.89706 1.25199 7.7318 1.37625 7.60578L7.57113 1.38189C7.69511 1.25782 7.86297 1.18815 8.03796 1.18815C8.21295 1.18815 8.38082 1.25782 8.5048 1.38189L12.4951 5.39086L5.36771 12.5516L1.37743 8.54263C1.31565 8.48148 1.26666 8.40854 1.23333 8.3281C1.2 8.24766 1.18301 8.16134 1.18336 8.0742Z" fill="#3A7D04"/>
</svg>
