<svg width="22" height="22" viewBox="0 0 22 22" fill="none" xmlns="http://www.w3.org/2000/svg">
<path d="M0 21.6418C0 21.733 0.0362164 21.8204 0.100682 21.8849C0.165148 21.9494 0.252582 21.9856 0.34375 21.9856H21.7326C21.778 21.986 21.8231 21.9771 21.865 21.9596C21.9069 21.9422 21.9449 21.9164 21.9766 21.8838L21.9787 21.8825C21.9807 21.8804 21.9807 21.8763 21.9835 21.8742C22.0177 21.8356 22.0429 21.7898 22.0571 21.7401C22.0619 21.7243 22.0639 21.7092 22.0667 21.6927C22.0694 21.6755 22.077 21.6604 22.077 21.6425C22.077 21.615 22.0674 21.591 22.0612 21.5655C22.0591 21.5559 22.0633 21.5463 22.0598 21.5366L19.8873 14.8576C19.8708 14.8059 19.8421 14.7589 19.8034 14.7208L8.0355 2.95214C8.02312 2.93289 8.01419 2.91226 7.99769 2.89508L5.42712 0.324513C5.22608 0.124047 4.95375 0.0114746 4.66984 0.0114746C4.38593 0.0114746 4.11361 0.124047 3.91256 0.324513L0.3135 3.92358C0.111375 4.1257 0 4.39451 0 4.68051C0 4.96651 0.111375 5.23601 0.3135 5.43814L2.827 7.95164C2.83938 7.9702 2.84763 7.99151 2.86413 8.00801L14.6135 19.8365C14.6538 19.8775 14.704 19.9076 14.7593 19.9238L19.3744 21.2988H0.34375C0.298641 21.2987 0.253956 21.3075 0.212255 21.3247C0.170553 21.3419 0.132653 21.3671 0.100724 21.399C0.0687945 21.4309 0.0434632 21.4687 0.0261797 21.5104C0.00889621 21.552 -9.05804e-08 21.5967 0 21.6418H0ZM4.37388 6.9857L15.1587 17.6323L14.762 19.0087L3.59356 7.76601L4.37388 6.9857ZM15.686 17.1875L4.85925 6.50033L6.53469 4.82489L17.2645 15.5829V17.1875H15.686ZM17.6928 15.0391L7.02075 4.33883L7.73506 3.62451L18.8801 14.7696L17.6928 15.0391ZM15.8043 17.875H17.6082C17.6994 17.875 17.7869 17.8388 17.8513 17.7743C17.9158 17.7099 17.952 17.6224 17.952 17.5313V15.6853L19.3318 15.3718L21.2039 21.1262L15.3684 19.3875L15.8043 17.875ZM0.6875 4.68051C0.6875 4.57808 0.727375 4.48251 0.799563 4.40964L4.39862 0.810576C4.47065 0.738828 4.56818 0.698544 4.66984 0.698544C4.77151 0.698544 4.86903 0.738828 4.94106 0.810576L7.25931 3.12883L3.1185 7.26964L0.80025 4.95139C0.764357 4.91603 0.735893 4.87385 0.716531 4.82733C0.697169 4.78082 0.687298 4.7309 0.6875 4.68051Z" fill="white"/>
</svg>
