<svg width="51" height="51" viewBox="0 0 51 51" fill="none" xmlns="http://www.w3.org/2000/svg">
<g filter="url(#filter0_d_426_294)">
<circle cx="24.5" cy="22.5" r="18.5" fill="white"/>
</g>
<path d="M19.4189 21.3572C20.7789 24.03 22.97 26.2211 25.6428 27.5811L27.7206 25.5033C27.985 25.2389 28.3533 25.1633 28.6839 25.2672C29.7417 25.6167 30.875 25.8056 32.0556 25.8056C32.306 25.8056 32.5463 25.9051 32.7234 26.0822C32.9005 26.2593 33 26.4995 33 26.75V30.0556C33 30.306 32.9005 30.5463 32.7234 30.7234C32.5463 30.9005 32.306 31 32.0556 31C27.7974 31 23.7136 29.3084 20.7026 26.2974C17.6916 23.2864 16 19.2026 16 14.9444C16 14.694 16.0995 14.4537 16.2766 14.2766C16.4537 14.0995 16.694 14 16.9444 14H20.25C20.5005 14 20.7407 14.0995 20.9178 14.2766C21.0949 14.4537 21.1944 14.694 21.1944 14.9444C21.1944 16.125 21.3833 17.2583 21.7328 18.3161C21.8367 18.6467 21.7611 19.015 21.4967 19.2794L19.4189 21.3572Z" fill="#639524"/>
<defs>
<filter id="filter0_d_426_294" x="0" y="0" width="51" height="51" filterUnits="userSpaceOnUse" color-interpolation-filters="sRGB">
<feFlood flood-opacity="0" result="BackgroundImageFix"/>
<feColorMatrix in="SourceAlpha" type="matrix" values="0 0 0 0 0 0 0 0 0 0 0 0 0 0 0 0 0 0 127 0" result="hardAlpha"/>
<feOffset dx="1" dy="3"/>
<feGaussianBlur stdDeviation="3.5"/>
<feComposite in2="hardAlpha" operator="out"/>
<feColorMatrix type="matrix" values="0 0 0 0 0 0 0 0 0 0 0 0 0 0 0 0 0 0 0.17 0"/>
<feBlend mode="normal" in2="BackgroundImageFix" result="effect1_dropShadow_426_294"/>
<feBlend mode="normal" in="SourceGraphic" in2="effect1_dropShadow_426_294" result="shape"/>
</filter>
</defs>
</svg>
