<svg width="15" height="28" viewBox="0 0 15 28" fill="none" xmlns="http://www.w3.org/2000/svg">
<path d="M2.5758 26.7485L14.2353 14.7875C14.4401 14.5774 14.5547 14.2957 14.5547 14.0023C14.5547 13.7089 14.4401 13.4271 14.2353 13.217L2.57579 1.25153C2.4804 1.15356 2.36635 1.07569 2.24037 1.02252C2.11439 0.96935 1.97904 0.941959 1.8423 0.941959C1.70555 0.941959 1.5702 0.96935 1.44422 1.02252C1.31824 1.07569 1.20419 1.15356 1.10879 1.25153C0.912544 1.45245 0.802675 1.72217 0.802675 2.00304C0.802675 2.2839 0.912544 2.55361 1.10879 2.75453L12.073 14.0023L1.1088 25.2478C0.913219 25.4486 0.803776 25.7178 0.803776 25.9982C0.803776 26.2785 0.913219 26.5477 1.1088 26.7485C1.20419 26.8465 1.31824 26.9244 1.44422 26.9775C1.5702 27.0307 1.70556 27.0581 1.8423 27.0581C1.97904 27.0581 2.11439 27.0307 2.24037 26.9775C2.36635 26.9244 2.4804 26.8465 2.5758 26.7485Z" fill="#3A3A3A"/>
</svg>
