<svg width="68" height="69" viewBox="0 0 68 69" fill="none" xmlns="http://www.w3.org/2000/svg">
<g clip-path="url(#clip0_426_70)">
<path d="M17.9735 59.0958L19.0852 59.6534C23.7177 62.4409 28.9056 63.7417 34.0938 63.7417C50.3992 63.7417 63.7399 50.3616 63.7399 34.0081C63.7399 26.2031 60.5899 18.5838 55.0314 13.0086C49.4727 7.43349 42.0609 4.27441 34.0938 4.27441C17.7884 4.27441 4.44736 17.6546 4.63277 34.194C4.63277 39.7689 6.30036 45.1584 9.0796 49.804L9.82069 50.9192L6.85632 61.8835L17.9735 59.0958Z" fill="#4BB905"/>
<path d="M58.1806 10.0351C51.8808 3.53099 43.1723 0 34.2784 0C15.3792 0 0.185406 15.4243 0.370547 34.1936C0.370547 40.1404 2.03814 45.9015 4.81764 51.1048L0 68.7592L17.973 64.1133C22.9758 66.901 28.5342 68.2018 34.0932 68.2018C52.8073 68.2018 68.0011 52.7773 68.0011 34.0082C68.0011 24.9021 64.4805 16.3535 58.1809 10.0351H58.1806ZM34.2784 62.441C29.2756 62.441 24.2728 61.1404 20.0111 58.5386L18.8995 57.9811L8.15283 60.7685L10.9321 50.1761L10.191 49.0609C2.03814 35.8667 5.92928 18.3977 19.27 10.2208C32.6108 2.04416 49.8427 5.94679 57.9955 19.3269C66.1481 32.7071 62.2569 49.9898 48.9164 58.1667C44.6545 60.9542 39.4666 62.4407 34.2784 62.4407V62.441ZM50.5838 41.8135L48.5456 40.8842C48.5456 40.8842 45.5812 39.5834 43.7282 38.6541C43.5428 38.6541 43.3577 38.4682 43.1723 38.4682C42.6163 38.4682 42.2458 38.6541 41.8752 38.8401C41.8752 38.8401 41.6901 39.0258 39.096 41.9992C38.9106 42.3708 38.5401 42.5568 38.1695 42.5568H37.9841C37.799 42.5568 37.4284 42.3708 37.243 42.1851L36.3165 41.8135C34.2784 40.8842 32.4256 39.769 30.9432 38.2825C30.5726 37.9108 30.0167 37.5392 29.6461 37.1676C28.3491 35.8667 27.052 34.3799 26.1258 32.7073L25.9404 32.3357C25.7553 32.1497 25.7553 31.9641 25.5699 31.5924C25.5699 31.2208 25.5699 30.8491 25.7553 30.6632C25.7553 30.6632 26.4964 29.7339 27.052 29.1766C27.4229 28.8047 27.608 28.2474 27.9785 27.8757C28.3491 27.3181 28.5345 26.5749 28.3491 26.0173C28.164 25.088 25.9404 20.0705 25.3847 18.9556C25.0139 18.398 24.6436 18.2123 24.0877 18.0263H22.0495C21.6787 18.0263 21.3084 18.2123 20.9376 18.2123L20.7522 18.398C20.3817 18.5839 20.0111 18.9556 19.6406 19.1412C19.27 19.5131 19.0846 19.8845 18.7141 20.2564C17.417 21.9289 16.6759 23.9731 16.6759 26.0173C16.6759 27.5038 17.0465 28.9907 17.6024 30.2915L17.7878 30.8491C19.4554 34.3798 21.6787 37.5392 24.6436 40.3266L25.3847 41.0699C25.9404 41.6275 26.4964 41.9992 26.8669 42.5565C30.758 45.9018 35.2049 48.3176 40.2077 49.6185C40.7636 49.8041 41.5047 49.8041 42.0607 49.9901H43.9134C44.8399 49.9901 45.9515 49.6185 46.6929 49.2468C47.2486 48.8752 47.6191 48.8752 47.9897 48.5035L48.3605 48.1316C48.731 47.76 49.1016 47.5743 49.4721 47.2027C49.8427 46.831 50.2132 46.4594 50.3986 46.0875C50.7692 45.3442 50.9543 44.415 51.1397 43.486V42.1851C51.1397 42.1851 50.9543 41.9992 50.5838 41.8135Z" fill="white"/>
</g>
<defs>
<clipPath id="clip0_426_70">
<rect width="68" height="69" fill="white"/>
</clipPath>
</defs>
</svg>
