<svg width="29" height="29" viewBox="0 0 29 29" fill="none" xmlns="http://www.w3.org/2000/svg">
<path d="M15.9047 28.0713V22.5452C16.6477 22.3595 17.3675 22.0576 17.9944 21.6397V23.1954H24.7278V16.462H21.1057C21.1289 16.2762 21.1289 16.0673 21.1289 15.8815C21.1289 13.8847 20.2466 12.0272 18.807 10.7502L25.8887 3.64532L28.2106 5.96717V4.64371L25.8887 2.32186L18.0641 10.1697C17.8551 10.0304 17.6461 9.91433 17.4371 9.79824L25.8887 1.32346L28.2106 3.64532V2.32186L25.8887 0L17.53 8.35869C17.5997 7.96397 17.6461 7.56926 17.6461 7.15132C17.6461 3.69175 14.8367 0.882306 11.3771 0.882306C7.91753 0.882306 5.10809 3.69175 5.10809 7.15132C5.10809 7.17454 5.10809 7.19776 5.10809 7.22098C2.04323 8.40512 0 11.3771 0 14.6974C0 19.1321 3.59888 22.731 8.01041 22.731H10.1001V29H11.0288V22.731H14.2794C14.5116 22.731 14.7438 22.7078 14.976 22.6845V29H28.2106V28.0713H15.9047ZM23.799 17.3907V22.2666H18.9231V20.9199C19.9215 19.9912 20.6413 18.7838 20.9664 17.3907H23.799ZM14.2794 21.8022H11.0288V19.6894L15.4171 17.5068L14.9992 16.6709L11.0288 18.6445V9.4964H10.1001V14.0008L6.1297 12.004L5.71177 12.8399L10.1001 15.0456V21.8022H8.01041C4.10969 21.8022 0.928743 18.6213 0.928743 14.7206C0.928743 11.6789 2.85589 8.98559 5.73499 8.01041L6.08327 7.89432L6.06005 7.54604C6.06005 7.42994 6.03683 7.29063 6.03683 7.17454C6.03683 4.22578 8.42834 1.83427 11.3771 1.83427C14.3259 1.83427 16.7174 4.22578 16.7174 7.17454C16.7174 8.05685 16.5084 8.91593 16.0905 9.68215L15.8351 10.1465L16.3227 10.3323C18.6213 11.1914 20.1769 13.4203 20.1769 15.8815C20.2002 19.1553 17.5532 21.8022 14.2794 21.8022Z" fill="white"/>
</svg>
